<?xml version="1.0" encoding="utf-8"?>
<!-- Generator: Adobe Illustrator 27.2.0, SVG Export Plug-In . SVG Version: 6.00 Build 0)  -->
<svg version="1.1" id="Layer_1" xmlns="http://www.w3.org/2000/svg" xmlns:xlink="http://www.w3.org/1999/xlink" x="0px" y="0px"
	 viewBox="0 0 103.7 27.63" style="enable-background:new 0 0 103.7 27.63;" xml:space="preserve">
<style type="text/css">
	.st0{fill:#58595B;}
	.st1{fill:#27AAE1;}
	.st2{fill:#1C75BC;}
</style>
<g>
	<g>
		<g>
			<path class="st0" d="M79.52,17.74h-2.72c-0.05-0.35-0.15-0.67-0.3-0.94c-0.15-0.28-0.35-0.51-0.59-0.7
				c-0.24-0.19-0.52-0.34-0.83-0.45c-0.31-0.1-0.65-0.16-1.01-0.16c-0.66,0-1.23,0.16-1.72,0.49c-0.49,0.32-0.87,0.8-1.13,1.41
				c-0.27,0.62-0.4,1.37-0.4,2.25c0,0.91,0.14,1.67,0.41,2.28c0.27,0.62,0.65,1.08,1.14,1.4c0.49,0.31,1.05,0.47,1.69,0.47
				c0.36,0,0.69-0.05,1-0.14c0.31-0.1,0.58-0.24,0.82-0.42c0.24-0.18,0.44-0.41,0.6-0.67s0.27-0.57,0.33-0.91l2.72,0.01
				c-0.07,0.58-0.25,1.14-0.52,1.68c-0.28,0.54-0.65,1.02-1.12,1.44c-0.47,0.42-1.03,0.76-1.67,1c-0.65,0.25-1.38,0.37-2.19,0.37
				c-1.13,0-2.14-0.26-3.04-0.77c-0.89-0.51-1.59-1.25-2.11-2.23s-0.77-2.15-0.77-3.53c0-1.38,0.26-2.56,0.78-3.53
				c0.52-0.97,1.23-1.71,2.12-2.22c0.89-0.51,1.9-0.77,3.01-0.77c0.74,0,1.42,0.1,2.05,0.31c0.63,0.21,1.19,0.51,1.68,0.9
				c0.49,0.39,0.89,0.88,1.19,1.45C79.24,16.35,79.43,17,79.52,17.74z"/>
			<path class="st0" d="M88.34,16.94c-0.05-0.5-0.26-0.89-0.64-1.17c-0.38-0.28-0.89-0.42-1.53-0.42c-0.44,0-0.81,0.06-1.11,0.18
				s-0.53,0.29-0.69,0.51s-0.24,0.46-0.24,0.73c-0.01,0.23,0.04,0.43,0.15,0.6c0.11,0.17,0.25,0.32,0.44,0.44
				c0.19,0.12,0.4,0.23,0.64,0.32s0.5,0.16,0.78,0.23l1.14,0.27c0.55,0.12,1.06,0.29,1.53,0.5c0.46,0.21,0.86,0.46,1.2,0.76
				c0.34,0.3,0.6,0.66,0.79,1.07s0.28,0.88,0.29,1.41c0,0.78-0.2,1.45-0.59,2.02s-0.95,1.01-1.69,1.32
				c-0.73,0.31-1.62,0.47-2.65,0.47c-1.03,0-1.92-0.16-2.68-0.47c-0.76-0.31-1.35-0.78-1.77-1.4s-0.65-1.38-0.67-2.3h2.6
				c0.03,0.43,0.15,0.78,0.37,1.06s0.51,0.5,0.87,0.64s0.78,0.21,1.24,0.21c0.46,0,0.85-0.07,1.19-0.2c0.34-0.13,0.6-0.32,0.79-0.55
				c0.19-0.24,0.28-0.51,0.28-0.81c0-0.29-0.08-0.53-0.25-0.72c-0.17-0.19-0.41-0.36-0.73-0.5s-0.71-0.26-1.17-0.37l-1.38-0.35
				c-1.07-0.26-1.92-0.67-2.54-1.22c-0.62-0.55-0.93-1.3-0.92-2.24c0-0.77,0.2-1.44,0.62-2.02c0.42-0.57,0.99-1.02,1.71-1.35
				c0.73-0.32,1.55-0.48,2.48-0.48c0.94,0,1.77,0.16,2.47,0.48c0.71,0.32,1.25,0.77,1.65,1.35c0.39,0.58,0.6,1.24,0.61,2H88.34z"/>
			<path class="st0" d="M99.77,16.94c-0.05-0.5-0.26-0.89-0.64-1.17c-0.38-0.28-0.89-0.42-1.53-0.42c-0.44,0-0.81,0.06-1.11,0.18
				s-0.53,0.29-0.69,0.51s-0.24,0.46-0.24,0.73c-0.01,0.23,0.04,0.43,0.15,0.6c0.11,0.17,0.25,0.32,0.44,0.44
				c0.19,0.12,0.4,0.23,0.64,0.32s0.5,0.16,0.78,0.23l1.14,0.27c0.55,0.12,1.06,0.29,1.53,0.5c0.46,0.21,0.86,0.46,1.2,0.76
				c0.34,0.3,0.6,0.66,0.79,1.07s0.28,0.88,0.29,1.41c0,0.78-0.2,1.45-0.59,2.02s-0.95,1.01-1.69,1.32
				c-0.73,0.31-1.62,0.47-2.65,0.47c-1.03,0-1.92-0.16-2.68-0.47c-0.76-0.31-1.35-0.78-1.77-1.4s-0.65-1.38-0.67-2.3h2.6
				c0.03,0.43,0.15,0.78,0.37,1.06s0.51,0.5,0.87,0.64s0.78,0.21,1.24,0.21c0.46,0,0.85-0.07,1.19-0.2c0.34-0.13,0.6-0.32,0.79-0.55
				c0.19-0.24,0.28-0.51,0.28-0.81c0-0.29-0.08-0.53-0.25-0.72c-0.17-0.19-0.41-0.36-0.73-0.5s-0.71-0.26-1.17-0.37l-1.38-0.35
				c-1.07-0.26-1.92-0.67-2.54-1.22c-0.62-0.55-0.93-1.3-0.92-2.24c0-0.77,0.2-1.44,0.62-2.02c0.42-0.57,0.99-1.02,1.71-1.35
				c0.73-0.32,1.55-0.48,2.48-0.48c0.94,0,1.77,0.16,2.47,0.48c0.71,0.32,1.25,0.77,1.65,1.35c0.39,0.58,0.6,1.24,0.61,2H99.77z"/>
		</g>
	</g>
	<g>
		<path class="st0" d="M31.69,10.81v14.96h-3.63V10.81H31.69z"/>
		<path class="st0" d="M36.41,13.11c-0.54,0-1-0.15-1.38-0.46s-0.58-0.68-0.58-1.11s0.19-0.8,0.58-1.11
			c0.39-0.31,0.85-0.46,1.38-0.46c0.54,0,1,0.15,1.38,0.46c0.38,0.31,0.58,0.68,0.58,1.11c0,0.43-0.19,0.81-0.58,1.11
			C37.42,12.95,36.96,13.11,36.41,13.11z M34.59,25.77V14.55h3.63v11.22H34.59z"/>
		<path class="st0" d="M44.85,25.98c-0.83,0-1.58-0.13-2.23-0.38c-0.65-0.25-1.17-0.62-1.55-1.12c-0.38-0.49-0.57-1.11-0.57-1.85
			c0-0.62,0.13-1.15,0.4-1.57c0.27-0.42,0.63-0.76,1.09-1.02c0.46-0.26,0.98-0.45,1.57-0.58c0.59-0.13,1.21-0.22,1.85-0.28
			c0.76-0.07,1.38-0.13,1.84-0.19s0.8-0.15,1.01-0.27c0.21-0.12,0.31-0.3,0.31-0.54v-0.04c0-0.46-0.17-0.82-0.51-1.07
			c-0.34-0.25-0.82-0.38-1.44-0.38c-0.65,0-1.17,0.12-1.56,0.37c-0.39,0.25-0.64,0.55-0.77,0.92l-3.36-0.23
			c0.17-0.68,0.5-1.27,1-1.77c0.5-0.5,1.15-0.88,1.94-1.15c0.79-0.27,1.71-0.41,2.76-0.41c0.73,0,1.42,0.07,2.09,0.22
			c0.67,0.15,1.26,0.37,1.78,0.68c0.52,0.31,0.93,0.7,1.23,1.18c0.3,0.48,0.45,1.05,0.45,1.72v7.57h-3.44v-1.56h-0.1
			c-0.21,0.35-0.49,0.66-0.84,0.92c-0.35,0.27-0.78,0.47-1.27,0.62C46.07,25.91,45.5,25.98,44.85,25.98z M45.89,23.84
			c0.53,0,1.01-0.09,1.42-0.27s0.73-0.43,0.96-0.74c0.23-0.31,0.35-0.66,0.35-1.06v-1.19c-0.11,0.06-0.27,0.12-0.46,0.17
			c-0.2,0.05-0.42,0.1-0.66,0.14c-0.25,0.04-0.49,0.08-0.73,0.11c-0.24,0.03-0.47,0.06-0.67,0.08c-0.43,0.05-0.8,0.14-1.12,0.25
			c-0.32,0.12-0.57,0.27-0.74,0.47c-0.18,0.2-0.26,0.44-0.26,0.73c0,0.42,0.18,0.75,0.54,0.97C44.88,23.73,45.33,23.84,45.89,23.84z
			"/>
		<path class="st0" d="M65.94,17.75l-3.32,0.18c-0.06-0.24-0.18-0.46-0.37-0.66s-0.43-0.36-0.74-0.47s-0.67-0.18-1.09-0.18
			c-0.56,0-1.04,0.1-1.42,0.3s-0.58,0.47-0.58,0.81c0,0.27,0.12,0.49,0.38,0.68s0.68,0.33,1.29,0.45l2.37,0.41
			c1.27,0.22,2.22,0.58,2.85,1.08c0.62,0.5,0.94,1.15,0.94,1.96c0,0.74-0.25,1.38-0.75,1.94c-0.5,0.55-1.19,0.99-2.06,1.3
			c-0.87,0.31-1.88,0.46-3.01,0.46c-1.73,0-3.11-0.31-4.14-0.93s-1.63-1.47-1.8-2.54l3.57-0.16c0.11,0.45,0.37,0.8,0.78,1.03
			c0.41,0.24,0.95,0.35,1.59,0.35c0.64,0,1.15-0.11,1.54-0.32s0.59-0.49,0.59-0.82c-0.01-0.28-0.15-0.51-0.42-0.7
			s-0.69-0.32-1.26-0.42L58.6,21.1c-1.28-0.22-2.23-0.6-2.85-1.14c-0.62-0.54-0.93-1.23-0.93-2.07c0-0.72,0.23-1.34,0.69-1.86
			c0.46-0.52,1.1-0.92,1.93-1.21c0.83-0.28,1.81-0.42,2.93-0.42c1.65,0,2.96,0.3,3.91,0.9C65.22,15.9,65.78,16.72,65.94,17.75z"/>
	</g>
	<g>
		<path class="st1" d="M19.81,25.77L16.86,6.36h-0.24L7.21,25.77H1.22L14.27,0.22h6.96l4.58,25.55H19.81z"/>
	</g>
	<g>
		<path class="st2" d="M2.48,25.76L7.06,0.21h6.96l13.05,25.55h-5.99L11.68,6.35h-0.24L8.48,25.76H2.48z"/>
	</g>
</g>
<g>
</g>
<g>
</g>
<g>
</g>
<g>
</g>
<g>
</g>
<g>
</g>
</svg>
